<svg version="1.1" id="Airplane" xmlns="http://www.w3.org/2000/svg" xmlns:xlink="http://www.w3.org/1999/xlink" x="0px" y="0px"
	 width="110.754px" height="108.004px" viewBox="0 0 110.754 108.004" enable-background="new 0 0 110.754 108.004"
	 xml:space="preserve">
<g>
	<g>
		<polygon fill="#fff" points="110.754,54.015 109.192,51.139 105.755,49.107 101.474,48.31 80.177,47.876 68.875,33.159 
			74.129,32.583 75.631,30.703 75.509,28.449 73.134,27.196 64.571,27.506 57.261,17.129 61.944,16.818 62.941,15.13 62.941,13.005 
			61.508,12.005 52.947,12.003 44.638,1.471 41.326,0.001 34.951,0 47.009,25.377 50.944,37.128 51.943,43.878 50.192,47.847 
			46.88,49.643 42.63,50.072 19.63,50.126 8.007,34.872 0.008,33.807 5.191,52.526 0.316,53.994 		"/>
	</g>
	<g>
		<polygon fill="#fff" points="110.754,54.015 109.191,56.389 105.753,58.17 101.472,58.841 80.175,59.204 68.867,73.886 
			74.121,74.447 75.623,76.32 75.499,78.57 73.124,79.819 64.562,79.506 57.247,89.879 61.938,90.192 62.941,91.88 62.941,94.005 
			61.496,96.004 52.934,96.004 44.619,106.535 41.306,108.004 34.931,108.004 46.999,82.129 50.938,70.129 51.939,63.254 
			50.19,59.222 46.878,57.393 42.628,56.947 19.628,56.876 8,72.122 0,73.182 5.191,54.963 0.316,53.994 		"/>
	</g>
</g>
</svg>