<?xml version="1.0" encoding="utf-8"?>
<!-- Generator: Adobe Illustrator 19.2.0, SVG Export Plug-In . SVG Version: 6.00 Build 0)  -->
<svg version="1.1" id="Capa_1" xmlns="http://www.w3.org/2000/svg" xmlns:xlink="http://www.w3.org/1999/xlink" x="0px" y="0px"
	 viewBox="0 0 503.8 503.8" style="enable-background:new 0 0 503.8 503.8;" xml:space="preserve">
<style type="text/css">
	path{fill:#95989E;}
</style>
<g>
	<path class="st0" d="M18,119.2c-4.6,9.6,1.4,22,14.3,29.6c5.8,4.8,24.7,14.6,76.1,40.5c17.7,8.9,35.9,18,49.8,25.3
		c0,0,0.1,0,0.1,0.1c0.5,0.3,1.1,0.5,1.7,0.6c29.1,7.1,58.8,14.5,87.5,21.7c57.5,14.4,117,29.3,175.4,42.1c0.1,0,0.3,0.1,0.4,0.1
		c23.1,3.9,57.1-4.3,60.1-18.1c4.8-21.4-34-51.9-81.4-63.9c-21.6-5.2-67.9-16.4-92.3-22.1C296.2,166.5,205.9,59.1,186,34.4
		c-1.1-1.4-2.6-2.3-4.4-2.7c-6.1-1.4-10.7-2.6-15.3-3.7c-4.6-1.1-9.2-2.3-15.3-3.7c-3.1-0.7-6.3,0.4-8.2,3c-1.9,2.5-2.1,5.9-0.5,8.7
		c9.8,17.1,38.7,68.6,64.1,114.8c-1.7-0.4-3.3-0.8-4.8-1.1c-14-3.3-23.5-5.5-43.8-10.4l-38.3-23.9l-47-80.9
		c-1.1-1.9-2.9-3.3-5.1-3.7l-21.3-4.9c-2.4-0.5-4.9,0-6.7,1.6c-1.9,1.5-3,3.8-2.9,6.3l0.9,76.8C26.9,109.3,20.6,113.7,18,119.2z
		 M52.4,43.6l8.1,1.9l46.2,79.6c0.7,1.1,1.6,2.1,2.7,2.7l41.1,25.6c0.7,0.4,1.5,0.8,2.3,1c21.3,5.2,30.9,7.4,45.2,10.7
		c6.1,1.4,13,3,22.1,5.2c3,0.7,6.2-0.4,8.1-2.9c1.9-2.5,2.1-5.9,0.6-8.6c-21.8-39.8-48.4-87.5-63.7-114.6c3.1,0.8,6.4,1.6,10.2,2.5
		c7.6,9.2,34.1,41.2,60.6,71.9c59.8,69.5,65.6,70.8,69.5,71.7c24.1,5.7,71.1,17,92.8,22.2c45.7,11.6,69,36.4,69.7,44.1
		c-4.7,3.8-23.9,9.8-41.9,6.9c-58.1-12.7-117.4-27.6-174.7-41.9c-28.4-7.1-57.8-14.5-86.7-21.5c-13.8-7.2-31.8-16.2-49.1-24.9
		c-28.6-14.4-67.8-34-72.8-38.2c-0.5-0.6-1.2-1.1-1.9-1.5c-6.3-3.6-8.3-7.6-8.5-9.1c1.2-0.3,4.4-0.5,10.1,1.8c2.5,1,5.2,0.6,7.4-0.9
		c2.2-1.5,3.5-4,3.4-6.6L52.4,43.6z"/>
	<path class="st0" d="M495.8,411.2H13c-4.4,0-7.9,3.5-7.9,7.9S8.6,427,13,427h482.9c4.4,0,7.9-3.5,7.9-7.9S500.2,411.2,495.8,411.2z
		"/>
</g>
</svg>
