<?xml version="1.0" encoding="utf-8"?>
<!-- Generator: Adobe Illustrator 19.2.0, SVG Export Plug-In . SVG Version: 6.00 Build 0)  -->
<svg version="1.1" id="Capa_1" xmlns="http://www.w3.org/2000/svg" xmlns:xlink="http://www.w3.org/1999/xlink" x="0px" y="0px"
	 viewBox="0 0 503.8 503.8" style="enable-background:new 0 0 503.8 503.8;" xml:space="preserve">
<style type="text/css">
	.st0{fill:#010002;}
</style>
<g>
	<path class="st0" d="M22.7,228.5c0.2,10.7,11.1,19,26,20c7.4,1.7,28.7,2,86.2,2c19.8,0,40.2,0,55.8,0.3c0,0,0.1,0,0.1,0
		c0.6,0,1.2-0.1,1.8-0.2c29.2-6.7,59.1-13.4,87.9-19.8c57.9-12.9,117.7-26.2,175.6-41c0.1,0,0.2-0.1,0.4-0.1
		c22.4-6.9,49.1-29.5,45.7-43.1c-5.3-21.3-53.6-31.1-101.4-20.6c-21.6,5-68.1,15.8-92.4,21.6c-15.9-1.4-144.7-57-173.6-70.1
		c-1.6-0.7-3.4-0.9-5.1-0.5c-6,1.4-10.7,2.5-15.3,3.5c-4.6,1-9.3,2.1-15.4,3.5c-3.1,0.7-5.4,3.2-6,6.3c-0.6,3.1,0.8,6.3,3.4,8
		c16.5,10.9,65.3,44,108.7,73.9c-1.7,0.4-3.3,0.8-4.8,1.2c-14,3.4-23.4,5.6-43.8,10.4l-45-4.2l-78.2-51.2c-1.8-1.2-4.1-1.6-6.2-1.1
		L6,132.4c-2.4,0.6-4.3,2.2-5.3,4.4c-1,2.2-0.9,4.8,0.2,6.9L36.1,212C26.3,215.6,22.6,222.4,22.7,228.5z"/>
	<path class="st0" d="M495.8,411.2H13c-4.4,0-7.9,3.5-7.9,7.9S8.6,427,13,427h482.9c4.4,0,7.9-3.5,7.9-7.9S500.2,411.2,495.8,411.2z
		"/>
</g>
</svg>
