<?xml version="1.0" encoding="utf-8"?>
<!-- Generator: Adobe Illustrator 19.2.0, SVG Export Plug-In . SVG Version: 6.00 Build 0)  -->
<svg version="1.1" id="Layer_1" xmlns="http://www.w3.org/2000/svg" xmlns:xlink="http://www.w3.org/1999/xlink" x="0px" y="0px"
	 viewBox="0 0 265.9 265.9" style="enable-background:new 0 0 265.9 265.9;" xml:space="preserve">
<style type="text/css">
	path{fill:#95989E;}
</style>
<g>
	<g>
		<g>
			<path d="M134.7,0.1c-0.3,0-0.6-0.1-0.9-0.1l-0.6,0l-1,0c-0.3,0-0.6,0-0.9,0.1C74,1.4,27.5,48.9,27.5,106.3
				c0,74.9,84.4,145,101.4,158.3c1.2,0.9,2.6,1.4,4.1,1.4s2.9-0.5,4.1-1.4c16.9-13.3,101.4-83.3,101.4-158.3
				C238.4,48.9,191.9,1.4,134.7,0.1z M133,250.8c-22.5-18.3-92.2-80.4-92.2-144.6c0-50.5,41.1-92.2,91.5-93c0.2,0,0.3,0,0.5,0l0.2,0
				l0.2,0c0.2,0,0.3,0,0.5,0c50.5,0.8,91.5,42.5,91.5,93C225.2,170.4,155.4,232.5,133,250.8z"/>
			<g>
				<path class="st0" d="M65.4,78.1c-1.1,2.9,0.9,6.3,4.7,8.2c1.8,1.3,7.4,3.7,22.7,10c5.3,2.2,10.7,4.4,14.8,6.2l0,0
					c0.2,0.1,0.3,0.1,0.5,0.1c8.5,1.4,17.2,2.9,25.6,4.3c16.8,2.9,34.2,5.9,51.2,8.3c0,0,0.1,0,0.1,0c6.7,0.6,16.3-2.5,16.9-6.5
					c0.9-6.2-10.9-14.1-24.7-16.6c-6.3-1-19.9-3.2-27-4.4c-4.1-2.1-32.3-31-38.5-37.6c-0.3-0.4-0.8-0.6-1.3-0.7
					c-1.7-0.3-3.1-0.5-4.5-0.7c-1.3-0.2-2.7-0.5-4.5-0.8c-0.9-0.2-1.8,0.3-2.3,1s-0.5,1.8,0,2.5c3.2,4.7,12.6,18.8,20.9,31.5
					c-0.5-0.1-1-0.1-1.4-0.2c-4.1-0.6-6.8-1.1-12.8-2l-11.5-6L79.2,52.6c-0.3-0.5-0.9-0.9-1.5-1l-6.2-0.9c-0.7-0.1-1.4,0.1-1.9,0.6
					c-0.5,0.5-0.8,1.2-0.7,1.9l1.9,22C67.8,75,66,76.4,65.4,78.1z"/>
				<path class="st0" d="M195.4,157l-119.2,0c-1,0-2,1.7-2.1,3.9c-0.1,2.5,0.8,4.6,1.9,4.6h119.2c1,0,2-1.7,2.1-3.9
					C197.4,159.1,196.5,157,195.4,157z"/>
			</g>
		</g>
	</g>
</g>
</svg>
