<?xml version="1.0" encoding="utf-8"?>
<!-- Generator: Adobe Illustrator 19.2.0, SVG Export Plug-In . SVG Version: 6.00 Build 0)  -->
<svg version="1.1" id="Layer_1" xmlns="http://www.w3.org/2000/svg" xmlns:xlink="http://www.w3.org/1999/xlink" x="0px" y="0px"
	 viewBox="0 0 265.9 265.9" style="enable-background:new 0 0 265.9 265.9;" xml:space="preserve">
<style type="text/css">
	path{fill:#95989E;}
</style>
<g>
	<g>
		<g>
			<path d="M134.7,0.1c-0.3,0-0.6-0.1-0.9-0.1l-0.6,0l-1,0c-0.3,0-0.6,0-0.9,0.1C74,1.4,27.5,48.9,27.5,106.3
				c0,74.9,84.4,145,101.4,158.3c1.2,0.9,2.6,1.4,4.1,1.4s2.9-0.5,4.1-1.4c16.9-13.3,101.4-83.3,101.4-158.3
				C238.4,48.9,191.9,1.4,134.7,0.1z M133,250.8c-22.5-18.3-92.2-80.4-92.2-144.6c0-50.5,41.1-92.2,91.5-93c0.2,0,0.3,0,0.5,0l0.2,0
				l0.2,0c0.2,0,0.3,0,0.5,0c50.5,0.8,91.5,42.5,91.5,93C225.2,170.4,155.4,232.5,133,250.8z"/>
			<g>
				<path class="st0" d="M67.5,104.4c0.1,3.1,3.2,5.5,7.5,5.8c2.1,0.5,8.3,0.6,24.8,0.6c5.7,0,11.6,0,16.1,0.1h0
					c0.2,0,0.3,0,0.5-0.1c8.4-1.9,17-3.9,25.3-5.7c16.7-3.7,33.9-7.5,50.5-11.8c0,0,0.1,0,0.1,0c6.4-2,14.1-8.5,13.1-12.4
					c-1.5-6.1-15.4-8.9-29.2-5.9c-6.2,1.4-19.6,4.5-26.6,6.2c-4.6-0.4-41.6-16.4-49.9-20.2c-0.5-0.2-1-0.3-1.5-0.1
					c-1.7,0.4-3.1,0.7-4.4,1c-1.3,0.3-2.7,0.6-4.4,1c-0.9,0.2-1.6,0.9-1.7,1.8c-0.2,0.9,0.2,1.8,1,2.3c4.7,3.1,18.8,12.7,31.3,21.3
					c-0.5,0.1-0.9,0.2-1.4,0.3c-4,1-6.7,1.6-12.6,3l-12.9-1.2L70.6,75.6c-0.5-0.3-1.2-0.5-1.8-0.3l-6.1,1.5
					c-0.7,0.2-1.2,0.6-1.5,1.3c-0.3,0.6-0.3,1.4,0.1,2l10.1,19.7C68.6,100.7,67.5,102.7,67.5,104.4z"/>
				<path class="st0" d="M195.4,157l-119.2,0c-1,0-2,1.7-2.1,3.9c-0.1,2.5,0.8,4.6,1.9,4.6h119.2c1,0,2-1.7,2.1-3.9
					C197.4,159.1,196.5,157,195.4,157z"/>
			</g>
		</g>
	</g>
</g>
</svg>
